<svg id="c-loader" xmlns="http://www.w3.org/2000/svg" viewBox="0 0 50 50"><defs><style>.cls-1{fill:#1b374c;}.cls-2{fill:#12c9dd;stroke-width:3.98px;}.cls-2,.cls-3{stroke:#12c9dd;stroke-miterlimit:10;}.cls-3{fill:none;stroke-width:0.99px;}</style></defs><title>cajigasdev-logo</title><circle id="bg" class="cls-1" cx="25" cy="25" r="24"/><g id="c"><path class="cls-2" d="M37.38,17l-2.1,1.57a11.22,11.22,0,0,0-4.13-3.4A12.13,12.13,0,0,0,25.85,14,11.75,11.75,0,0,0,20,15.51a10.86,10.86,0,0,0-4.18,4.08,11.18,11.18,0,0,0-1.49,5.77,9.91,9.91,0,0,0,3.31,7.78,12.12,12.12,0,0,0,8.37,3,11.75,11.75,0,0,0,9.29-4.35l2.1,1.59a13.3,13.3,0,0,1-4.94,3.89,15.54,15.54,0,0,1-6.59,1.37q-7,0-11-4.62a13.17,13.17,0,0,1-3.35-8.84,13.11,13.11,0,0,1,4.07-9.78,14,14,0,0,1,10.19-4,15,15,0,0,1,6.7,1.47A12.9,12.9,0,0,1,37.38,17Z"/></g><circle id="border" class="cls-3" cx="25" cy="25" r="24"/></svg>